<svg width="20" height="20" viewBox="0 0 20 20" xmlns="http://www.w3.org/2000/svg">
<path fill-rule="evenodd" clip-rule="evenodd" d="M11.41 4.04281C11.3344 4.08646 11.2688 4.14545 11.2174 4.216C10.8197 4.76178 11.4502 5.46299 12.035 5.12534L12.9249 4.6116C13.115 4.50183 13.2336 4.30035 13.2373 4.08084C13.2454 3.5951 12.7206 3.28616 12.2999 3.52907L11.41 4.04281ZM10.2072 3.47985C10.3614 3.26821 10.5582 3.09122 10.785 2.96028L11.6749 2.44653C12.937 1.71782 14.5116 2.64464 14.4871 4.10186C14.476 4.76039 14.1202 5.36482 13.5499 5.69413L13.0201 5.99996H15C16.6569 5.99996 18 7.34311 18 8.99996V13C18 14.6568 16.6569 16 15 16H12C11.4477 16 11 15.5522 11 15V6.99996C11 6.77379 11.0751 6.56515 11.2017 6.39762C10.719 6.25261 10.31 5.90975 10.0681 5.47297C9.80741 5.94383 9.35246 6.30554 8.82032 6.4279C8.93357 6.59 9 6.78722 9 6.99996V15C9 15.5522 8.55228 16 8 16H5C3.34315 16 2 14.6568 2 13V8.99996C2 7.34311 3.34315 5.99996 5 5.99996H7.11615L6.58643 5.69413C6.01605 5.36482 5.66027 4.76039 5.64919 4.10186C5.62469 2.64464 7.19926 1.71782 8.46143 2.44653L9.35126 2.96028C9.57805 3.09122 9.7749 3.26821 9.92912 3.47985C9.98126 3.55141 10.0275 3.62386 10.0681 3.6969C10.1088 3.62386 10.155 3.55141 10.2072 3.47985ZM8.72626 4.04281C8.80186 4.08646 8.86747 4.14545 8.91888 4.216C9.31658 4.76178 8.68609 5.46299 8.10126 5.12534L7.21143 4.6116C7.0213 4.50183 6.90271 4.30035 6.89902 4.08084C6.89085 3.5951 7.41571 3.28616 7.83643 3.52907L8.72626 4.04281Z" fill="url(#icon_bonus_gradient)"/>
<defs>
<linearGradient id="icon_bonus_gradient" x1="18" y1="2.19238" x2="0.552102" y2="4.36336" gradientUnits="userSpaceOnUse">
<stop stop-color="#FDBB4E"/>
<stop offset="1" stop-color="#F56719"/>
</linearGradient>
</defs>
</svg>
