<svg width="32" height="32" viewBox="0 0 32 32" fill="none" xmlns="http://www.w3.org/2000/svg">
    <path fill-rule="evenodd" clip-rule="evenodd" d="M21.6036 4.12891H5.08751L4.87956 4.13491C3.02172 4.24256 1.54834 5.78326 1.54834 7.66808V12.387L1.55435 12.5949C1.66199 14.4528 3.20269 15.9261 5.08751 15.9261H21.6036L21.8116 15.9201C23.6695 15.8125 25.1428 14.2718 25.1428 12.387V11.3225H26.9032C27.4555 11.3225 27.9032 11.7702 27.9032 12.3225V13.4192H27.8387C27.2864 13.4192 26.8387 13.8669 26.8387 14.4192V18.6128C26.8387 19.1651 27.2864 19.6128 27.8387 19.6128H27.9032V20.7096C27.9032 21.2618 27.4555 21.7096 26.9032 21.7096H25.1428V20.6447L25.1368 20.4367C25.0292 18.5789 23.4885 17.1055 21.6036 17.1055H5.08751L4.87956 17.1115C3.02172 17.2192 1.54834 18.7599 1.54834 20.6447V25.3636L1.55435 25.5716C1.66199 27.4294 3.20269 28.9028 5.08751 28.9028H21.6036L21.8116 28.8968C23.6695 28.7891 25.1428 27.2485 25.1428 25.3636V23.7096H26.9032C28.56 23.7096 29.9032 22.3664 29.9032 20.7096V19.6128H29.9677C30.52 19.6128 30.9677 19.1651 30.9677 18.6128V14.4192C30.9677 13.8669 30.52 13.4192 29.9677 13.4192H29.9032V12.3225C29.9032 10.6656 28.56 9.32246 26.9032 9.32246H25.1428V7.66808L25.1368 7.46012C25.0292 5.60229 23.4885 4.12891 21.6036 4.12891ZM5.08751 5.89849H21.6036C22.5809 5.89849 23.3732 6.69079 23.3732 7.66808V12.387C23.3732 13.3643 22.5809 14.1566 21.6036 14.1566H5.08751C4.11019 14.1566 3.31793 13.3643 3.31793 12.387V7.66808C3.31793 6.69079 4.11019 5.89849 5.08751 5.89849ZM21.6036 8.8478C21.6036 8.19624 21.0755 7.66808 20.4239 7.66808C19.7724 7.66808 19.2442 8.19624 19.2442 8.8478C19.2442 9.49936 19.7724 10.0275 20.4239 10.0275C21.0755 10.0275 21.6036 9.49936 21.6036 8.8478ZM16.8847 8.8478C16.8847 8.19624 16.3566 7.66808 15.705 7.66808C15.0535 7.66808 14.5253 8.19624 14.5253 8.8478C14.5253 9.49936 15.0535 10.0275 15.705 10.0275C16.3566 10.0275 16.8847 9.49936 16.8847 8.8478ZM5.08751 18.8751H21.6036C22.5809 18.8751 23.3732 19.6674 23.3732 20.6447V25.3636C23.3732 26.3409 22.5809 27.1332 21.6036 27.1332H5.08751C4.11019 27.1332 3.31793 26.3409 3.31793 25.3636V20.6447C3.31793 19.6674 4.11019 18.8751 5.08751 18.8751ZM21.6036 21.8244C21.6036 21.1729 21.0755 20.6447 20.4239 20.6447C19.7724 20.6447 19.2442 21.1729 19.2442 21.8244C19.2442 22.476 19.7724 23.0041 20.4239 23.0041C21.0755 23.0041 21.6036 22.476 21.6036 21.8244ZM16.8847 21.8244C16.8847 21.1729 16.3566 20.6447 15.705 20.6447C15.0535 20.6447 14.5253 21.1729 14.5253 21.8244C14.5253 22.476 15.0535 23.0041 15.705 23.0041C16.3566 23.0041 16.8847 22.476 16.8847 21.8244Z" fill="#948AC5"/>
</svg>
