<svg width="32" height="32" viewBox="0 0 32 32" fill="none" xmlns="http://www.w3.org/2000/svg">
    <path d="M26.3336 4C27.9214 4 29.2211 5.23355 29.3266 6.7946L29.3336 7V21.003C29.3336 22.5909 28.1 23.8906 26.539 23.9961L26.3336 24.003L20.6671 24.0027V27.3333L23.0018 27.3339C23.5541 27.3339 24.0018 27.7816 24.0018 28.3339C24.0018 28.8402 23.6256 29.2586 23.1375 29.3248L23.0018 29.3339H9.00179C8.44951 29.3339 8.00179 28.8862 8.00179 28.3339C8.00179 27.8277 8.378 27.4093 8.8661 27.343L9.00179 27.3339L11.3338 27.3333V24.0027L5.66846 24.003C4.08064 24.003 2.78093 22.7695 2.67538 21.2084L2.66846 21.003V7C2.66846 5.41218 3.90201 4.11247 5.46306 4.00692L5.66846 4H26.3336ZM18.6658 24.0027H13.3325L13.3338 27.3339H18.6671L18.6658 24.0027ZM26.3336 6H5.66846C5.1622 6 4.7438 6.37621 4.67759 6.86431L4.66846 7V21.003C4.66846 21.5093 5.04466 21.9277 5.53276 21.9939L5.66846 22.003H26.3336C26.8398 22.003 27.2582 21.6268 27.3244 21.1387L27.3336 21.003V7C27.3336 6.49374 26.9574 6.07535 26.4693 6.00913L26.3336 6ZM24.6726 8C24.9999 8 25.2721 8.23583 25.3285 8.54683L25.3393 8.66667V19.3366C25.3393 19.6639 25.1034 19.9361 24.7924 19.9925L24.6726 20.0033H12.6669C12.3396 20.0033 12.0674 19.7674 12.011 19.4564L12.0002 19.3366V8.66667C12.0002 8.33939 12.2361 8.06719 12.5471 8.01074L12.6669 8H24.6726ZM9.99936 8C10.3266 8 10.5988 8.23583 10.6553 8.54683L10.666 8.66667V19.3366C10.666 19.6639 10.4302 19.9361 10.1192 19.9925L9.99936 20.0033H7.33279C7.00551 20.0033 6.73331 19.7674 6.67686 19.4564L6.66612 19.3366V8.66667C6.66612 8.33939 6.90195 8.06719 7.21295 8.01074L7.33279 8H9.99936Z" fill="#948AC5"/>
</svg>
